<?xml version="1.0" encoding="UTF-8"?>
<svg width="1200pt" height="1200pt" version="1.1" viewBox="0 0 1200 1200" xmlns="http://www.w3.org/2000/svg">
 <g fill="#ff001b">
  <path d="m600 88.777c-222.29 0-403.14 180.85-403.14 403.15v476.03c0 78.996 64.27 143.27 143.27 143.27 57.453 0 107.12-33.996 129.93-82.93 22.816 48.93 72.484 82.926 129.94 82.926s107.12-33.996 129.93-82.93c22.812 48.934 72.48 82.93 129.93 82.93 79.004 0 143.27-64.27 143.27-143.27l0.003906-476.03c0-222.3-180.85-403.15-403.14-403.15zm376.48 879.18c0 64.297-52.312 116.6-116.61 116.6-64.297 0-116.6-52.305-116.6-116.6 0-7.3711-5.9688-13.332-13.332-13.332-7.3633 0-13.332 5.9648-13.332 13.332 0 64.297-52.305 116.6-116.6 116.6s-116.6-52.305-116.6-116.6c0-7.3711-5.9688-13.332-13.332-13.332-7.3633 0-13.332 5.9648-13.332 13.332 0 64.297-52.305 116.6-116.6 116.6-64.297 0-116.61-52.305-116.61-116.6v-476.03c0-207.59 168.89-376.48 376.48-376.48s376.48 168.89 376.48 376.48z"/>
  <path d="m778.86 614.79h-357.71c-7.3633 0-13.332 5.9648-13.332 13.332 0 105.98 86.219 192.19 192.19 192.19 105.98 0 192.2-86.211 192.2-192.19 0-7.3711-5.9727-13.332-13.336-13.332zm-178.86 178.85c-86.777 0-158.18-67.137-164.99-152.19h329.98c-6.8086 85.055-78.207 152.19-164.99 152.19z"/>
  <path d="m804.95 493.57h-46.887v-46.887c0-7.3711-5.9688-13.332-13.332-13.332s-13.332 5.9648-13.332 13.332v46.887h-46.887c-7.3633 0-13.332 5.9648-13.332 13.332 0 7.3711 5.9688 13.332 13.332 13.332h46.887v46.887c0 7.3711 5.9688 13.332 13.332 13.332s13.332-5.9648 13.332-13.332v-46.887h46.887c7.3633 0 13.332-5.9648 13.332-13.332 0.003906-7.3672-5.9688-13.332-13.332-13.332z"/>
  <path d="m441.93 567.12c0 7.3711 5.9688 13.332 13.332 13.332s13.332-5.9648 13.332-13.332v-46.887h46.887c7.3633 0 13.332-5.9648 13.332-13.332 0-7.3711-5.9688-13.332-13.332-13.332h-46.887v-46.887c0-7.3711-5.9688-13.332-13.332-13.332s-13.332 5.9648-13.332 13.332v46.887l-46.887-0.003906c-7.3633 0-13.332 5.9648-13.332 13.332 0 7.3711 5.9688 13.332 13.332 13.332h46.887z"/>
 </g>
</svg>
