<?xml version="1.0" encoding="UTF-8"?>
<svg width="1200pt" height="1200pt" version="1.1" viewBox="0 0 1200 1200" xmlns="http://www.w3.org/2000/svg">
 <g fill="#ff001b">
  <path d="m600 88.781c-222.29 0-403.14 180.85-403.14 403.14v476.03c0 79.004 64.27 143.27 143.27 143.27 57.453 0 107.12-33.996 129.93-82.938 22.816 48.945 72.484 82.941 129.94 82.941s107.12-33.996 129.93-82.938c22.812 48.938 72.48 82.938 129.93 82.938 79.004 0 143.27-64.27 143.27-143.27l0.003906-476.03c0-222.29-180.85-403.14-403.14-403.14zm376.48 879.17c0 64.297-52.312 116.61-116.61 116.61-64.297 0-116.6-52.312-116.6-116.61 0-7.3633-5.9688-13.332-13.332-13.332-7.3633 0-13.332 5.9688-13.332 13.332 0 64.297-52.305 116.61-116.6 116.61s-116.6-52.312-116.6-116.61c0-7.3633-5.9688-13.332-13.332-13.332-7.3633 0-13.332 5.9688-13.332 13.332 0 64.297-52.305 116.61-116.6 116.61-64.297 0-116.61-52.312-116.61-116.61v-476.03c0-207.59 168.89-376.47 376.48-376.47s376.48 168.89 376.48 376.47z"/>
  <path d="m778.86 614.79h-357.71c-7.3633 0-13.332 5.9688-13.332 13.332 0 105.98 86.219 192.2 192.19 192.2 105.98 0 192.2-86.219 192.2-192.2 0-7.3633-5.9727-13.332-13.336-13.332zm-178.86 178.86c-86.777 0-158.18-67.137-164.99-152.2h329.98c-6.8086 85.059-78.207 152.2-164.99 152.2z"/>
  <path d="m440.61 512.66c0 38.367 23.523 68.418 53.555 68.418 30.027 0 53.547-30.051 53.547-68.418 0-33.84-18.324-61.141-43.25-67.125 22.457-21.594 29.77-43.133 30.34-44.934 2.2188-6.9844-1.6328-14.414-8.6055-16.672-6.9219-2.2383-14.465 1.5703-16.785 8.5234-0.97656 2.9297-25.137 71.863-136.18 71.863-7.3633 0-13.332 5.9688-13.332 13.332s5.9688 13.332 13.332 13.332c29.77 0 54.047-4.5859 74.176-11.516-4.207 9.8203-6.7969 21-6.7969 33.195zm67.484 35.344c-4.1016 3.9766-8.8594 6.4062-13.93 6.4062-5.0742 0-9.832-2.4297-13.934-6.4062-0.29687-1.918-0.66406-3.8203-0.66406-5.8359 0-14.266 7.707-24.922 14.598-24.922 6.8867 0 14.598 10.656 14.598 24.922 0 2.0078-0.37109 3.9102-0.66797 5.8359zm-13.93-77.09c12.184 0 22.684 13.43 25.832 31.043-7.043-7.0312-15.914-11.375-25.832-11.375-9.918 0-18.793 4.3438-25.84 11.383 3.1445-17.617 13.648-31.051 25.84-31.051z"/>
  <path d="m826.78 464.31c-110.93 0-135.16-68.789-136.18-71.855-2.2578-6.9805-9.7383-10.809-16.719-8.6016-7.0195 2.2266-10.898 9.7266-8.6719 16.746 0.57031 1.7969 7.8828 23.336 30.34 44.934-24.93 5.9805-43.258 33.285-43.258 67.125 0 38.367 23.523 68.418 53.555 68.418s53.555-30.051 53.555-68.418c0-12.195-2.5898-23.379-6.7969-33.195 20.125 6.9297 44.406 11.516 74.176 11.516 7.3633 0 13.332-5.9688 13.332-13.332s-5.9688-13.336-13.332-13.336zm-107 83.695c-4.1016 3.9727-8.8555 6.4023-13.93 6.4023-5.0742 0-9.8281-2.4297-13.93-6.4023-0.29688-1.9258-0.66797-3.832-0.66797-5.8359 0-14.266 7.707-24.922 14.598-24.922 6.8867 0 14.598 10.656 14.598 24.922-0.003906 2-0.37109 3.9102-0.66797 5.8359zm-13.93-57.426c-9.918 0-18.793 4.3438-25.84 11.383 3.1445-17.617 13.648-31.051 25.84-31.051s22.695 13.434 25.84 31.051c-7.0469-7.0391-15.922-11.383-25.84-11.383z"/>
 </g>
</svg>
