<?xml version="1.0" encoding="UTF-8"?>
<svg width="1200pt" height="1200pt" version="1.1" viewBox="0 0 1200 1200" xmlns="http://www.w3.org/2000/svg">
 <g fill="#ff001b">
  <path d="m600 88.777c-222.29 0-403.14 180.85-403.14 403.15v476.03c0 78.996 64.27 143.27 143.27 143.27 57.461 0 107.12-33.996 129.93-82.93 22.812 48.93 72.473 82.926 129.93 82.926s107.12-33.996 129.93-82.93c22.812 48.934 72.473 82.93 129.93 82.93 78.996 0 143.27-64.27 143.27-143.27v-476.03c0-222.3-180.84-403.15-403.14-403.15zm376.47 879.18c0 64.297-52.305 116.6-116.6 116.6s-116.6-52.305-116.6-116.6c0-7.3711-5.9648-13.332-13.332-13.332-7.3711 0-13.332 5.9648-13.332 13.332 0 64.297-52.305 116.6-116.6 116.6s-116.6-52.305-116.6-116.6c0-7.3711-5.9648-13.332-13.332-13.332-7.3711 0-13.332 5.9648-13.332 13.332 0 64.297-52.305 116.6-116.6 116.6s-116.6-52.305-116.6-116.6l-0.007812-476.03c0-207.59 168.88-376.48 376.47-376.48s376.47 168.89 376.47 376.48z"/>
  <path d="m778.86 614.79h-357.71c-7.3711 0-13.332 5.9648-13.332 13.332 0 105.98 86.211 192.19 192.19 192.19 105.98 0 192.19-86.211 192.19-192.19-0.003906-7.3711-5.9688-13.332-13.336-13.332zm-178.86 178.85c-86.785 0-158.18-67.137-164.99-152.19h329.97c-6.8086 85.055-78.199 152.19-164.98 152.19z"/>
  <path d="m424.86 476.29c0 7.3711 5.9648 13.332 13.332 13.332h50.5l-56.152 26.238c-6.668 3.125-9.543 11.055-6.4336 17.734 2.2656 4.8438 7.0703 7.6836 12.098 7.6836 1.8867 0 3.8008-0.40234 5.6367-1.25l110.52-51.652c1.3281-0.625 2.4727-1.4844 3.5-2.4648 0.27344-0.26172 0.47266-0.56641 0.72266-0.84766 0.78906-0.89062 1.4492-1.8594 1.9727-2.9258 0.19922-0.40625 0.39453-0.78906 0.55078-1.2148 0.54688-1.4688 0.93359-3.0039 0.93359-4.625 0-1.625-0.38281-3.1602-0.93359-4.625-0.16016-0.42969-0.35156-0.8125-0.55469-1.2188-0.52734-1.0664-1.1797-2.0352-1.9727-2.9258-0.25-0.28125-0.44922-0.58594-0.72266-0.84766-1.0273-0.98047-2.1719-1.8398-3.5-2.4648l-110.52-51.652c-6.707-3.0742-14.609-0.22266-17.734 6.4336-3.1133 6.6797-0.23438 14.609 6.4336 17.734l56.152 26.238h-50.5c-7.3633-0.011719-13.328 5.9492-13.328 13.32z"/>
  <path d="m639.45 482.13c0.52734 1.0703 1.1836 2.0391 1.9766 2.9297 0.25 0.28125 0.44922 0.58594 0.72266 0.84766 1.0273 0.98047 2.1719 1.8398 3.5 2.4648l110.51 51.652c1.8359 0.84766 3.75 1.25 5.6367 1.25 5.0273 0 9.832-2.8398 12.098-7.6836 3.1133-6.6797 0.23438-14.609-6.4336-17.734l-56.145-26.238h50.492c7.3711 0 13.332-5.9648 13.332-13.332 0-7.3711-5.9648-13.332-13.332-13.332h-50.492l56.145-26.238c6.668-3.125 9.543-11.055 6.4336-17.734-3.1133-6.668-11.016-9.5195-17.734-6.4336l-110.51 51.652c-1.3281 0.625-2.4727 1.4844-3.5 2.4648-0.27344 0.26172-0.47266 0.56641-0.72266 0.84766-0.79297 0.89062-1.4492 1.8594-1.9727 2.9297-0.19922 0.40625-0.39062 0.78516-0.55078 1.2148-0.55078 1.4688-0.93359 3.0039-0.93359 4.6289s0.38281 3.1602 0.93359 4.6289c0.15625 0.42969 0.34766 0.8125 0.54688 1.2148z"/>
 </g>
</svg>
