<?xml version="1.0" encoding="UTF-8"?>
<svg width="1200pt" height="1200pt" version="1.1" viewBox="0 0 1200 1200" xmlns="http://www.w3.org/2000/svg">
 <g fill="#ff001b">
  <path d="m600 88.777c-222.29 0-403.14 180.85-403.14 403.15v476.03c0 78.996 64.27 143.27 143.27 143.27 57.461 0 107.12-33.996 129.93-82.93 22.812 48.93 72.473 82.926 129.93 82.926s107.12-33.996 129.93-82.93c22.812 48.934 72.473 82.93 129.93 82.93 78.996 0 143.27-64.27 143.27-143.27v-476.03c0-222.3-180.84-403.15-403.14-403.15zm376.47 879.18c0 64.297-52.305 116.6-116.6 116.6s-116.6-52.305-116.6-116.6c0-7.3711-5.9648-13.332-13.332-13.332-7.3711 0-13.332 5.9648-13.332 13.332 0 64.297-52.305 116.6-116.6 116.6s-116.6-52.305-116.6-116.6c0-7.3711-5.9648-13.332-13.332-13.332-7.3711 0-13.332 5.9648-13.332 13.332 0 64.297-52.305 116.6-116.6 116.6s-116.6-52.305-116.6-116.6l-0.007812-476.03c0-207.59 168.88-376.48 376.47-376.48s376.47 168.89 376.47 376.48z"/>
  <path d="m600 578.57c-54.637 0-99.09 58.828-99.09 131.13 0 72.316 44.453 131.14 99.09 131.14 54.648 0 99.102-58.828 99.102-131.14 0-72.305-44.453-131.13-99.102-131.13zm0 235.61c-39.934 0-72.422-46.875-72.422-104.48 0-57.602 32.488-104.46 72.422-104.46s72.434 46.863 72.434 104.46c0 57.605-32.5 104.48-72.434 104.48z"/>
  <path d="m573.89 440.62c-5.3398-21.145-23.426-36.484-43.008-36.484-14.738 0-27.043 6.5234-35.82 18.516-8.7891-11.992-21.082-18.516-35.809-18.516-19.582 0-37.668 15.34-43.008 36.484-3.3984 13.465-8.2305 60.809 72.488 104.32 1.9805 1.0664 4.1523 1.6016 6.3281 1.6016 2.1758 0 4.3477-0.53516 6.3281-1.6016 80.727-43.516 75.898-90.859 72.5-104.32zm-131.79 6.5234c2.668-10.613 10.832-16.34 17.148-16.34 12.996 0 18.855 13.449 21.496 24.738 1.4062 6.0273 6.7852 10.301 12.98 10.301h2.668c6.1992 0 11.59-4.2695 12.98-10.312 2.6289-11.277 8.4883-24.727 21.496-24.727 6.3164 0 14.48 5.7305 17.148 16.34 4.3633 17.254-7.5273 44.543-52.969 70.793-45.422-26.25-57.312-53.539-52.949-70.793z"/>
  <path d="m754.82 511.84-75.949-36.496 75.938-36.484c6.6406-3.1914 9.4414-11.16 6.25-17.785-3.1914-6.6406-11.145-9.4922-17.785-6.25l-100.96 48.504c-4.6211 2.2148-7.5664 6.8867-7.5664 12.02 0 5.1289 2.9414 9.793 7.5508 12.02l100.96 48.516c1.875 0.89844 3.8398 1.3164 5.7695 1.3164 4.9727 0 9.7383-2.7852 12.031-7.5508 3.1914-6.6484 0.39062-14.617-6.2383-17.809z"/>
 </g>
</svg>
