<?xml version="1.0" encoding="UTF-8"?>
<svg width="1200pt" height="1200pt" version="1.1" viewBox="0 0 1200 1200" xmlns="http://www.w3.org/2000/svg">
 <g fill="#ff001b">
  <path d="m600 88.781c-222.29 0-403.14 180.85-403.14 403.14v476.03c0 79.004 64.27 143.27 143.27 143.27 57.461 0 107.12-33.996 129.93-82.938 22.812 48.945 72.473 82.941 129.93 82.941s107.12-33.996 129.93-82.938c22.812 48.938 72.473 82.938 129.93 82.938 78.996 0 143.27-64.27 143.27-143.27v-476.03c0-222.29-180.84-403.14-403.14-403.14zm376.47 879.17c0 64.297-52.305 116.61-116.6 116.61s-116.6-52.312-116.6-116.61c0-7.3633-5.9648-13.332-13.332-13.332-7.3711 0-13.332 5.9688-13.332 13.332 0 64.297-52.305 116.61-116.6 116.61s-116.6-52.312-116.6-116.61c0-7.3633-5.9648-13.332-13.332-13.332-7.3711 0-13.332 5.9688-13.332 13.332 0 64.297-52.305 116.61-116.6 116.61s-116.6-52.312-116.6-116.61l-0.007812-476.03c0-207.59 168.88-376.47 376.47-376.47s376.47 168.89 376.47 376.47z"/>
  <path d="m778.86 614.79h-357.71c-7.3711 0-13.332 5.9688-13.332 13.332 0 105.98 86.211 192.2 192.19 192.2 105.98 0 192.19-86.219 192.19-192.2-0.003906-7.3633-5.9688-13.332-13.336-13.332zm-178.86 178.86c-86.785 0-158.18-67.137-164.99-152.2h329.97c-6.8086 85.059-78.199 152.2-164.98 152.2z"/>
  <path d="m432.96 563.75h131.96c5.6758 0 10.73-3.5859 12.59-8.9453 1.8633-5.3516 0.14453-11.301-4.2969-14.832l-131.96-104.76c-4.0352-3.1953-9.5195-3.7891-14.09-1.5625-4.6094 2.2266-7.5391 6.8867-7.5391 12.004v104.76c0 7.3633 5.9648 13.332 13.336 13.332zm13.332-90.48 80.391 63.816h-80.391z"/>
  <path d="m567.79 515.63c2.4492 1.9531 5.3789 2.8984 8.2812 2.8984 3.9336 0 7.8125-1.7266 10.457-5.0312 4.5703-5.7695 3.6211-14.152-2.1484-18.738l-143.12-113.79c-5.7695-4.6016-14.141-3.6211-18.738 2.1367-4.5703 5.7695-3.6211 14.152 2.1484 18.738z"/>
  <path d="m772.84 433.65c-4.5703-2.2188-10.066-1.6211-14.09 1.5625l-131.96 104.76c-4.4414 3.5273-6.1602 9.4805-4.2969 14.832 1.8633 5.3594 6.9141 8.9453 12.59 8.9453h131.96c7.3711 0 13.332-5.9688 13.332-13.332v-104.76c0.003906-5.1211-2.9258-9.7812-7.5352-12.008zm-19.129 103.43h-80.391l80.391-63.816z"/>
  <path d="m623.95 518.53c2.9023 0 5.832-0.94531 8.2812-2.8984l143.11-113.79c5.7695-4.582 6.7188-12.969 2.1484-18.738-4.5977-5.7539-12.98-6.7461-18.738-2.1367l-143.11 113.79c-5.7695 4.582-6.7188 12.969-2.1484 18.738 2.6445 3.3125 6.5234 5.0352 10.457 5.0352z"/>
 </g>
</svg>
