<?xml version="1.0" encoding="UTF-8"?>
<svg width="1200pt" height="1200pt" version="1.1" viewBox="0 0 1200 1200" xmlns="http://www.w3.org/2000/svg">
 <g fill="#ff001b">
  <path d="m600 88.777c-222.29 0-403.14 180.85-403.14 403.15v476.03c0 78.996 64.27 143.27 143.27 143.27 57.461 0 107.12-33.996 129.93-82.93 22.812 48.93 72.473 82.926 129.93 82.926s107.12-33.996 129.93-82.93c22.812 48.934 72.473 82.93 129.93 82.93 78.996 0 143.27-64.27 143.27-143.27v-476.03c0-222.3-180.84-403.15-403.14-403.15zm376.47 879.18c0 64.297-52.305 116.6-116.6 116.6s-116.6-52.305-116.6-116.6c0-7.3711-5.9648-13.332-13.332-13.332-7.3711 0-13.332 5.9648-13.332 13.332 0 64.297-52.305 116.6-116.6 116.6s-116.6-52.305-116.6-116.6c0-7.3711-5.9648-13.332-13.332-13.332-7.3711 0-13.332 5.9648-13.332 13.332 0 64.297-52.305 116.6-116.6 116.6s-116.6-52.305-116.6-116.6l-0.007812-476.03c0-207.59 168.88-376.48 376.47-376.48s376.47 168.89 376.47 376.48z"/>
  <path d="m778.86 614.79h-357.71c-7.3711 0-13.332 5.9648-13.332 13.332 0 105.98 86.211 192.19 192.19 192.19 105.98 0 192.19-86.211 192.19-192.19-0.003906-7.3711-5.9688-13.332-13.336-13.332zm-178.86 178.85c-86.785 0-158.18-67.137-164.99-152.19h329.97c-6.8086 85.055-78.199 152.19-164.98 152.19z"/>
  <path d="m488.96 419.77c-35.207 0-63.855 28.645-63.855 63.855 0 35.207 28.645 63.84 63.855 63.84 35.207 0 63.84-28.633 63.84-63.84 0.003906-35.211-28.629-63.855-63.84-63.855zm0 101.03c-20.508 0-37.188-16.68-37.188-37.176 0-20.508 16.68-37.188 37.188-37.188 20.496 0 37.176 16.68 37.176 37.188 0 20.496-16.68 37.176-37.176 37.176z"/>
  <path d="m711.05 419.77c-35.207 0-63.855 28.645-63.855 63.855 0 35.207 28.645 63.84 63.855 63.84 35.207 0 63.84-28.633 63.84-63.84 0-35.211-28.633-63.855-63.84-63.855zm0 101.03c-20.508 0-37.188-16.68-37.188-37.176 0-20.508 16.68-37.188 37.188-37.188 20.496 0 37.176 16.68 37.176 37.188 0 20.496-16.68 37.176-37.176 37.176z"/>
  <path d="m842.71 449.21h-32.621c-14.293-40.992-53.234-70.535-99.031-70.535-53.34 0-97.418 40.035-104 91.613h-14.09c-6.5859-51.578-50.664-91.613-104-91.613-45.809 0-84.754 29.543-99.047 70.535h-32.609c-7.3711 0-13.332 5.9648-13.332 13.332v42.148c0 7.3711 5.9648 13.332 13.332 13.332h32.602c14.289 40.996 53.238 70.547 99.051 70.547 53.34 0 97.418-40.035 104-91.613h14.09c6.5859 51.578 50.664 91.613 104 91.613 45.805 0 84.75-29.551 99.039-70.547h32.617c7.3711 0 13.332-5.9648 13.332-13.332v-42.148c0.003907-7.3711-5.9609-13.332-13.332-13.332zm-458.32 42.148h-13.75v-15.48h13.75c-0.1875 2.5664-0.39062 5.1328-0.39062 7.7461-0.003906 2.6094 0.19922 5.168 0.39062 7.7344zm104.57 70.547c-43.176 0-78.293-35.117-78.293-78.281 0-43.164 35.117-78.281 78.293-78.281 43.164 0 78.281 35.117 78.281 78.281 0 43.164-35.117 78.281-78.281 78.281zm222.1 0c-43.164 0-78.281-35.117-78.281-78.281 0-43.164 35.117-78.281 78.281-78.281 43.164 0 78.281 35.117 78.281 78.281 0 43.164-35.117 78.281-78.281 78.281zm118.32-70.547h-13.766c0.1875-2.5625 0.39062-5.125 0.39062-7.7344 0-2.6133-0.20312-5.1797-0.39062-7.7461h13.766z"/>
 </g>
</svg>
