<?xml version="1.0" encoding="UTF-8"?>
<svg width="1200pt" height="1200pt" version="1.1" viewBox="0 0 1200 1200" xmlns="http://www.w3.org/2000/svg">
 <g fill="#ff001b">
  <path d="m600 88.781c-222.29 0-403.14 180.85-403.14 403.14v476.03c0 79.004 64.27 143.27 143.27 143.27 57.461 0 107.12-33.996 129.93-82.938 22.812 48.945 72.473 82.941 129.93 82.941s107.12-33.996 129.93-82.938c22.812 48.938 72.473 82.938 129.93 82.938 78.996 0 143.27-64.27 143.27-143.27v-476.03c0-222.29-180.84-403.14-403.14-403.14zm376.47 879.17c0 64.297-52.305 116.61-116.6 116.61s-116.6-52.312-116.6-116.61c0-7.3633-5.9648-13.332-13.332-13.332-7.3711 0-13.332 5.9688-13.332 13.332 0 64.297-52.305 116.61-116.6 116.61s-116.6-52.312-116.6-116.61c0-7.3633-5.9648-13.332-13.332-13.332-7.3711 0-13.332 5.9688-13.332 13.332 0 64.297-52.305 116.61-116.6 116.61s-116.6-52.312-116.6-116.61l-0.007812-476.03c0-207.59 168.88-376.47 376.47-376.47s376.47 168.89 376.47 376.47z"/>
  <path d="m778.86 614.79h-357.71c-7.3711 0-13.332 5.9688-13.332 13.332 0 105.98 86.211 192.2 192.19 192.2 105.98 0 192.19-86.219 192.19-192.2-0.003906-7.3633-5.9688-13.332-13.336-13.332zm-178.86 178.86c-86.785 0-158.18-67.137-164.99-152.2h329.97c-6.8086 85.059-78.199 152.2-164.98 152.2z"/>
  <path d="m807.28 430.59h-153.41c-7.3711 0-13.332 5.9688-13.332 13.332 0 45.102 33.375 82.457 76.707 88.934v47.812c0 7.3633 5.9648 13.332 13.332 13.332 7.3711 0 13.332-5.9688 13.332-13.332v-47.812c43.332-6.4766 76.707-43.832 76.707-88.934 0-7.3633-5.9648-13.332-13.336-13.332zm-76.703 76.699c-30.363 0-55.82-21.473-61.965-50.031h123.93c-6.1484 28.559-31.605 50.031-61.969 50.031z"/>
  <path d="m456.09 580.66c0 7.3633 5.9648 13.332 13.332 13.332 7.3711 0 13.332-5.9688 13.332-13.332v-47.812c43.332-6.4766 76.707-43.832 76.707-88.934 0-7.3633-5.9648-13.332-13.332-13.332h-153.4c-7.3711 0-13.332 5.9688-13.332 13.332 0 45.102 33.371 82.457 76.691 88.934zm-48.621-123.41h123.92c-6.1445 28.562-31.602 50.031-61.965 50.031s-55.805-21.473-61.953-50.031z"/>
 </g>
</svg>
