<?xml version="1.0" encoding="UTF-8"?>
<svg width="1200pt" height="1200pt" version="1.1" viewBox="0 0 1200 1200" xmlns="http://www.w3.org/2000/svg">
 <g fill="#ff001b">
  <path d="m600 88.777c-222.29 0-403.14 180.85-403.14 403.15v476.03c0 78.996 64.27 143.27 143.27 143.27 57.453 0 107.12-33.996 129.93-82.93 22.816 48.93 72.484 82.926 129.94 82.926s107.12-33.996 129.93-82.93c22.812 48.934 72.48 82.93 129.93 82.93 79.004 0 143.27-64.27 143.27-143.27l0.003906-476.03c0-222.3-180.85-403.15-403.14-403.15zm376.48 879.18c0 64.297-52.312 116.6-116.61 116.6-64.297 0-116.6-52.305-116.6-116.6 0-7.3711-5.9688-13.332-13.332-13.332-7.3633 0-13.332 5.9648-13.332 13.332 0 64.297-52.305 116.6-116.6 116.6s-116.6-52.305-116.6-116.6c0-7.3711-5.9688-13.332-13.332-13.332-7.3633 0-13.332 5.9648-13.332 13.332 0 64.297-52.305 116.6-116.6 116.6-64.297 0-116.61-52.305-116.61-116.6v-476.03c0-207.59 168.89-376.48 376.48-376.48s376.48 168.89 376.48 376.48z"/>
  <path d="m778.86 614.79h-357.71c-7.3633 0-13.332 5.9648-13.332 13.332 0 105.98 86.219 192.19 192.19 192.19 105.98 0 192.2-86.211 192.2-192.19 0-7.3711-5.9727-13.332-13.336-13.332zm-178.86 178.85c-86.777 0-158.18-67.137-164.99-152.19h329.98c-6.8086 85.055-78.207 152.19-164.99 152.19z"/>
  <path d="m484.76 559.06c44.355 0 80.438-42.629 80.438-95.027 0-52.395-36.082-95.027-80.438-95.027-44.355 0-80.441 42.629-80.441 95.027 0 52.398 36.086 95.027 80.441 95.027zm4.2617-27.215c-1.4297 0.14453-2.8008 0.54688-4.2578 0.54688s-2.8281-0.40234-4.2578-0.54688c-8.0859-1.9336-14.141-9.1797-14.141-17.852 0-10.145 8.2539-18.387 18.398-18.387s18.391 8.2422 18.391 18.387c0 8.6719-6.0469 15.918-14.133 17.852zm-4.2617-136.17c29.648 0 53.77 30.664 53.77 68.359 0 14.754-3.7812 28.336-10.055 39.52-4.7383-19.801-22.48-34.609-43.715-34.609-21.238 0-38.98 14.809-43.719 34.609-6.2734-11.18-10.055-24.766-10.055-39.52 0-37.695 24.121-68.359 53.773-68.359z"/>
  <path d="m715.25 369.01c-44.355 0-80.438 42.629-80.438 95.027 0 52.395 36.082 95.027 80.438 95.027 44.355 0 80.438-42.629 80.438-95.027 0-52.398-36.082-95.027-80.438-95.027zm-4.2578 27.215c1.4297-0.14453 2.8008-0.54687 4.2617-0.54687 1.457 0 2.832 0.40234 4.2617 0.54687 8.0859 1.9336 14.137 9.1797 14.137 17.852 0 10.145-8.2539 18.398-18.398 18.398s-18.398-8.2539-18.398-18.398c-0.003906-8.6719 6.0469-15.918 14.137-17.852zm4.2578 136.17c-29.648 0-53.77-30.664-53.77-68.359 0-14.75 3.7812-28.332 10.051-39.512 4.7422 19.801 22.48 34.617 43.719 34.617 21.238 0 38.977-14.816 43.719-34.617 6.2734 11.18 10.051 24.762 10.051 39.512 0 37.695-24.121 68.359-53.77 68.359z"/>
 </g>
</svg>
