<?xml version="1.0" encoding="UTF-8"?>
<svg width="1200pt" height="1200pt" version="1.1" viewBox="0 0 1200 1200" xmlns="http://www.w3.org/2000/svg">
 <g fill="#ff001b">
  <path d="m600 88.777c-222.29 0-403.14 180.85-403.14 403.15v476.03c0 78.996 64.27 143.27 143.27 143.27 57.461 0 107.12-33.996 129.93-82.93 22.812 48.93 72.473 82.926 129.93 82.926s107.12-33.996 129.93-82.93c22.812 48.934 72.473 82.93 129.93 82.93 78.996 0 143.27-64.27 143.27-143.27v-476.03c0-222.3-180.84-403.15-403.14-403.15zm376.47 879.18c0 64.297-52.305 116.6-116.6 116.6s-116.6-52.305-116.6-116.6c0-7.3711-5.9648-13.332-13.332-13.332-7.3711 0-13.332 5.9648-13.332 13.332 0 64.297-52.305 116.6-116.6 116.6s-116.6-52.305-116.6-116.6c0-7.3711-5.9648-13.332-13.332-13.332-7.3711 0-13.332 5.9648-13.332 13.332 0 64.297-52.305 116.6-116.6 116.6s-116.6-52.305-116.6-116.6l-0.007812-476.03c0-207.59 168.88-376.48 376.47-376.48s376.47 168.89 376.47 376.48z"/>
  <path d="m778.86 614.79h-357.71c-7.3711 0-13.332 5.9648-13.332 13.332 0 105.98 86.211 192.19 192.19 192.19 105.98 0 192.19-86.211 192.19-192.19-0.003906-7.3711-5.9688-13.332-13.336-13.332zm-178.86 178.85c-86.785 0-158.18-67.137-164.99-152.19h329.97c-6.8086 85.055-78.199 152.19-164.98 152.19z"/>
  <path d="m433.2 514.4c7.3711 0 13.332-5.9648 13.332-13.332 0-31.199 17.043-59.922 44.465-74.949 6.457-3.543 8.8281-11.641 5.2852-18.098-3.5273-6.457-11.629-8.8398-18.098-5.2852-35.977 19.715-58.32 57.383-58.32 98.332 0.003906 7.3672 5.9648 13.332 13.336 13.332z"/>
  <path d="m467.66 492.07c0 32.188 26.184 58.387 58.371 58.387s58.387-26.199 58.387-58.387-26.199-58.371-58.387-58.371-58.371 26.184-58.371 58.371zm58.371-31.707c17.488 0 31.719 14.219 31.719 31.707 0 17.488-14.23 31.719-31.719 31.719-17.488 0-31.707-14.23-31.707-31.719 0.003907-17.488 14.223-31.707 31.707-31.707z"/>
  <path d="m709 426.12c27.434 15.027 44.465 43.738 44.465 74.949 0 7.3711 5.9648 13.332 13.332 13.332 7.3711 0 13.332-5.9648 13.332-13.332 0-40.949-22.344-78.633-58.32-98.332-6.4727-3.5547-14.559-1.1719-18.098 5.2852-3.5391 6.457-1.168 14.566 5.2891 18.098z"/>
  <path d="m628.92 505.4c7.3711 0 13.332-5.9648 13.332-13.332 0-17.488 14.23-31.707 31.719-31.707s31.707 14.219 31.707 31.707c0 7.3711 5.9648 13.332 13.332 13.332 7.3711 0 13.332-5.9648 13.332-13.332 0-32.188-26.184-58.371-58.371-58.371s-58.387 26.184-58.387 58.371c0.003907 7.3711 5.9688 13.332 13.336 13.332z"/>
 </g>
</svg>
