<?xml version="1.0" encoding="UTF-8"?>
<svg width="1200pt" height="1200pt" version="1.1" viewBox="0 0 1200 1200" xmlns="http://www.w3.org/2000/svg">
 <g fill="#ff001b">
  <path d="m600 88.781c-222.29 0-403.14 180.85-403.14 403.14v476.03c0 79.004 64.27 143.27 143.27 143.27 57.453 0 107.12-33.996 129.93-82.938 22.816 48.945 72.484 82.941 129.94 82.941s107.12-33.996 129.93-82.938c22.812 48.938 72.48 82.938 129.93 82.938 79.004 0 143.27-64.27 143.27-143.27l0.003906-476.03c0-222.29-180.85-403.14-403.14-403.14zm376.48 879.17c0 64.297-52.312 116.61-116.61 116.61-64.297 0-116.6-52.312-116.6-116.61 0-7.3633-5.9688-13.332-13.332-13.332-7.3633 0-13.332 5.9688-13.332 13.332 0 64.297-52.305 116.61-116.6 116.61s-116.6-52.312-116.6-116.61c0-7.3633-5.9688-13.332-13.332-13.332-7.3633 0-13.332 5.9688-13.332 13.332 0 64.297-52.305 116.61-116.6 116.61-64.297 0-116.61-52.312-116.61-116.61v-476.03c0-207.59 168.89-376.47 376.48-376.47s376.48 168.89 376.48 376.47z"/>
  <path d="m778.86 614.79h-357.71c-7.3633 0-13.332 5.9688-13.332 13.332 0 105.98 86.219 192.2 192.19 192.2 105.98 0 192.2-86.219 192.2-192.2 0-7.3633-5.9727-13.332-13.336-13.332zm-178.86 178.86c-86.777 0-158.18-67.137-164.99-152.2h329.98c-6.8086 85.059-78.207 152.2-164.99 152.2z"/>
  <path d="m437.36 494.25h117.72c7.3633 0 13.332-5.9688 13.332-13.332 0-7.3633-5.9688-13.332-13.332-13.332h-117.72c-7.3633 0-13.332 5.9688-13.332 13.332 0 7.3594 5.9688 13.332 13.332 13.332z"/>
  <path d="m644.93 494.25h117.71c7.3633 0 13.332-5.9688 13.332-13.332 0-7.3633-5.9688-13.332-13.332-13.332h-117.71c-7.3633 0-13.332 5.9688-13.332 13.332-0.003906 7.3594 5.9688 13.332 13.332 13.332z"/>
 </g>
</svg>
