<?xml version="1.0" encoding="UTF-8"?>
<svg width="1200pt" height="1200pt" version="1.1" viewBox="0 0 1200 1200" xmlns="http://www.w3.org/2000/svg">
 <g fill="#ff001b">
  <path d="m600 88.781c-222.29 0-403.14 180.85-403.14 403.14v476.03c0 79.004 64.27 143.27 143.27 143.27 57.461 0 107.12-33.996 129.93-82.938 22.812 48.945 72.473 82.941 129.93 82.941s107.12-33.996 129.93-82.938c22.812 48.938 72.473 82.938 129.93 82.938 78.996 0 143.27-64.27 143.27-143.27v-476.03c0-222.29-180.84-403.14-403.14-403.14zm376.47 879.17c0 64.297-52.305 116.61-116.6 116.61s-116.6-52.312-116.6-116.61c0-7.3633-5.9648-13.332-13.332-13.332-7.3711 0-13.332 5.9688-13.332 13.332 0 64.297-52.305 116.61-116.6 116.61s-116.6-52.312-116.6-116.61c0-7.3633-5.9648-13.332-13.332-13.332-7.3711 0-13.332 5.9688-13.332 13.332 0 64.297-52.305 116.61-116.6 116.61s-116.6-52.312-116.6-116.61l-0.007812-476.03c0-207.59 168.88-376.47 376.47-376.47s376.47 168.89 376.47 376.47z"/>
  <path d="m778.86 614.79h-357.71c-7.3711 0-13.332 5.9688-13.332 13.332 0 105.98 86.211 192.2 192.19 192.2 105.98 0 192.19-86.219 192.19-192.2-0.003906-7.3633-5.9688-13.332-13.336-13.332zm-178.86 178.86c-86.785 0-158.18-67.137-164.99-152.2h329.97c-6.8086 85.059-78.199 152.2-164.98 152.2z"/>
  <path d="m450.09 503.84h84.637c7.3711 0 13.332-5.9688 13.332-13.332v-61.445c0-7.3633-5.9648-13.332-13.332-13.332-7.3711 0-13.332 5.9688-13.332 13.332v48.113h-57.969v-48.113c0-7.3633-5.9648-13.332-13.332-13.332-7.3711 0-13.332 5.9688-13.332 13.332v61.445c-0.003907 7.3633 5.9609 13.332 13.328 13.332z"/>
  <path d="m665.27 503.84h84.637c7.3711 0 13.332-5.9688 13.332-13.332v-61.445c0-7.3633-5.9648-13.332-13.332-13.332h-84.637c-7.3711 0-13.332 5.9688-13.332 13.332v61.445c0 7.3633 5.9609 13.332 13.332 13.332zm13.332-61.445h57.969v34.777h-57.969z"/>
 </g>
</svg>
