<?xml version="1.0" encoding="UTF-8"?>
<svg width="1200pt" height="1200pt" version="1.1" viewBox="0 0 1200 1200" xmlns="http://www.w3.org/2000/svg">
 <g fill="#ff001b">
  <path d="m600 88.781c-222.29 0-403.14 180.85-403.14 403.14v476.03c0 79.004 64.27 143.27 143.27 143.27 57.461 0 107.12-33.996 129.93-82.938 22.812 48.945 72.473 82.941 129.93 82.941s107.12-33.996 129.93-82.938c22.812 48.938 72.473 82.938 129.93 82.938 78.996 0 143.27-64.27 143.27-143.27v-476.03c0-222.29-180.84-403.14-403.14-403.14zm376.47 879.17c0 64.297-52.305 116.61-116.6 116.61s-116.6-52.312-116.6-116.61c0-7.3633-5.9648-13.332-13.332-13.332-7.3711 0-13.332 5.9688-13.332 13.332 0 64.297-52.305 116.61-116.6 116.61s-116.6-52.312-116.6-116.61c0-7.3633-5.9648-13.332-13.332-13.332-7.3711 0-13.332 5.9688-13.332 13.332 0 64.297-52.305 116.61-116.6 116.61s-116.6-52.312-116.6-116.61l-0.007812-476.03c0-207.59 168.88-376.47 376.47-376.47s376.47 168.89 376.47 376.47z"/>
  <path d="m778.86 614.79h-357.71c-7.3711 0-13.332 5.9688-13.332 13.332 0 105.98 86.211 192.2 192.19 192.2 105.98 0 192.19-86.219 192.19-192.2-0.003906-7.3633-5.9688-13.332-13.336-13.332zm-178.86 178.86c-86.785 0-158.18-67.137-164.99-152.2h329.97c-6.8086 85.059-78.199 152.2-164.98 152.2z"/>
  <path d="m571.5 490.36c2.3828 1.7578 5.1562 2.6055 7.9023 2.6055 4.0898 0 8.125-1.875 10.742-5.4219 4.375-5.9258 3.1133-14.27-2.8125-18.641l-104.26-76.875c-5.9375-4.375-14.27-3.1172-18.645 2.8203-4.375 5.9258-3.1133 14.27 2.8125 18.641z"/>
  <path d="m620.6 492.96c2.7461 0 5.5195-0.84766 7.9023-2.6055l104.26-76.875c5.9258-4.3672 7.1875-12.715 2.8125-18.641-4.3633-5.9375-12.707-7.1953-18.645-2.8203l-104.26 76.875c-5.9258 4.3672-7.1875 12.715-2.8125 18.641 2.6172 3.5508 6.6562 5.4258 10.742 5.4258z"/>
  <path d="m458.21 523.93h76.875c7.3711 0 13.332-5.9688 13.332-13.332s-5.9648-13.332-13.332-13.332h-76.875c-7.3711 0-13.332 5.9688-13.332 13.332s5.9648 13.332 13.332 13.332z"/>
  <path d="m651.57 510.59c0 7.3633 5.9648 13.332 13.332 13.332h76.875c7.3711 0 13.332-5.9688 13.332-13.332s-5.9648-13.332-13.332-13.332h-76.875c-7.3672-0.003907-13.332 5.9688-13.332 13.332z"/>
 </g>
</svg>
